<svg width="55" height="55" viewBox="0 0 55 55" fill="none" xmlns="http://www.w3.org/2000/svg">
<path d="M49.7348 27.4991C49.8688 27.3161 50.0063 27.133 50.1361 26.95C53.4799 22.1753 54.1846 17.7427 52.1238 14.4676C50.2186 11.4417 46.1254 9.77539 40.5944 9.77539C39.6294 9.77539 38.629 9.83211 37.6064 9.93266C35.1202 4.85633 31.5418 1.71875 27.5001 1.71875C23.4602 1.71875 19.8818 4.85633 17.3956 9.93266C16.403 9.83163 15.4061 9.77915 14.4084 9.77539C8.8792 9.77539 4.78428 11.4417 2.87905 14.4676C0.816547 17.7427 1.52209 22.1753 4.86506 26.95C4.99397 27.133 5.13147 27.3161 5.26639 27.4991C5.13061 27.6822 4.99311 27.8644 4.8642 28.0491C1.52123 32.8221 0.815688 37.2565 2.87819 40.5316C4.78342 43.5566 8.87834 45.2246 14.4076 45.2246H14.4093C15.4064 45.221 16.4028 45.1682 17.3947 45.0665C19.8809 50.1445 23.4594 53.2812 27.5001 53.2812C31.5426 53.2812 35.1211 50.1445 37.6064 45.0665C38.6282 45.167 39.6294 45.2246 40.5944 45.2246C46.1254 45.2246 50.2186 43.5583 52.1238 40.5316C54.1846 37.2565 53.4799 32.8221 50.1361 28.0491C50.0063 27.8644 49.8688 27.6822 49.7348 27.4991M40.5936 11.2535C45.523 11.2535 49.122 12.6569 50.7265 15.2066C52.4719 17.979 51.7826 21.8659 48.7791 26.1516L48.7301 26.2161C46.5551 23.5967 43.7234 21.0753 40.4217 18.8031C39.9181 16.0695 39.1782 13.5618 38.2501 11.3558C39.0493 11.2896 39.8339 11.2535 40.5936 11.2535M34.2256 38.182C32.0552 39.3265 29.8083 40.3197 27.501 41.1546C25.1932 40.3195 22.9458 39.3263 20.7747 38.182C19.1619 37.3275 17.594 36.3907 16.0773 35.3753C15.6327 32.7739 15.411 30.1392 15.4148 27.5C15.4148 24.7423 15.6502 22.0937 16.0773 19.623C17.594 18.608 19.1618 17.6718 20.7747 16.818C22.9453 15.6729 25.1928 14.68 27.501 13.8462C29.8081 14.6812 32.055 15.6741 34.2256 16.818C35.8381 17.6717 37.4056 18.6076 38.9221 19.6221C39.3672 22.2244 39.5888 24.8599 39.5847 27.5C39.5847 30.2569 39.3501 32.9063 38.9221 35.377C37.4055 36.3915 35.8379 37.3277 34.2256 38.182M38.5079 37.4584C38.0112 39.649 37.3546 41.6651 36.5708 43.4491C34.3769 43.1552 32.0823 42.6336 29.7491 41.91C32.7943 40.6873 35.7253 39.1977 38.5079 37.4584M25.2512 41.91C22.9188 42.6336 20.6243 43.1552 18.4312 43.4491C17.6457 41.6651 16.9908 39.649 16.4933 37.4584C17.6273 38.1679 18.7868 38.8358 19.9694 39.4608C21.6856 40.3697 23.4487 41.1872 25.2512 41.91M14.2391 34.0914C11.4556 32.0349 9.08889 29.8014 7.24725 27.5C9.08889 25.1995 11.4548 22.9634 14.2391 20.9086C13.9469 23.0938 13.8016 25.2962 13.8043 27.5009C13.8043 29.7859 13.9555 31.9937 14.2391 34.0914M16.4924 17.5424C16.99 15.3527 17.6448 13.3358 18.4303 11.5517C20.6234 11.8448 22.918 12.3664 25.2512 13.09C23.4488 13.8134 21.6858 14.6313 19.9694 15.5401C18.7866 16.1653 17.6268 16.8332 16.4924 17.5424M29.7508 13.0891C32.0823 12.3664 34.3769 11.8448 36.5708 11.5509C37.3546 13.3349 38.0112 15.351 38.5079 17.5416C35.7259 15.8021 32.7954 14.3122 29.7508 13.0891M40.762 20.9077C43.5447 22.9634 45.9131 25.1986 47.7548 27.5C45.9131 29.8014 43.5472 32.0375 40.762 34.0914C41.0456 31.9937 41.1969 29.7859 41.1969 27.5009C41.1969 25.2132 41.0456 23.0055 40.762 20.9077M27.5001 3.33008C30.7598 3.33008 33.7212 5.92883 35.8962 10.1389C33.1952 10.5351 30.3558 11.2509 27.501 12.2495C24.6462 11.2509 21.8059 10.5351 19.1049 10.1389C21.2808 5.92883 24.2405 3.33008 27.5001 3.33008ZM6.2203 26.1516C3.21936 21.8659 2.52756 17.9781 4.27295 15.2066C5.87827 12.6569 9.47819 11.2535 14.4076 11.2535C15.1672 11.2535 15.951 11.2896 16.7502 11.3558C15.8204 13.5618 15.0813 16.0695 14.5769 18.8031C11.276 21.0753 8.44436 23.5976 6.26928 26.2161C6.25467 26.1946 6.23577 26.1731 6.2203 26.1516M14.4101 43.7456H14.4084C9.47905 43.7456 5.87998 42.3423 4.27381 39.7925C2.52842 37.021 3.21936 33.1341 6.22116 28.8475C6.23663 28.826 6.25553 28.8054 6.271 28.7839C8.44608 31.4024 11.2777 33.9247 14.5786 36.1977C15.083 38.9305 15.8221 41.4399 16.7519 43.6451C15.9519 43.7104 15.169 43.7456 14.4101 43.7456M27.5001 51.6699C24.2414 51.6699 21.2808 49.072 19.1049 44.8602C21.8051 44.4641 24.6444 43.7473 27.4993 42.7505C30.3541 43.7473 33.1952 44.4641 35.8962 44.8602C33.7203 49.072 30.7598 51.6699 27.5001 51.6699ZM50.7282 39.7934C49.122 42.3431 45.523 43.7465 40.5936 43.7465C39.833 43.7465 39.0493 43.7112 38.2501 43.6459C39.1782 41.4391 39.9181 38.9314 40.4217 36.1986C43.7234 33.9255 46.5551 31.4033 48.7301 28.783C48.7456 28.8045 48.7637 28.8269 48.7808 28.8484C51.7826 33.1349 52.4744 37.0219 50.7282 39.7934" fill="#5A1790"/>
<path d="M27.498 32.334C30.1678 32.334 32.332 30.1697 32.332 27.5C32.332 24.8303 30.1678 22.666 27.498 22.666C24.8283 22.666 22.6641 24.8303 22.6641 27.5C22.6641 30.1697 24.8283 32.334 27.498 32.334Z" fill="#5A1790"/>
</svg>
