<svg width="122" height="135" viewBox="0 0 122 135" fill="none" xmlns="http://www.w3.org/2000/svg">
<g clip-path="url(#clip0_78_2089)">
<path fill-rule="evenodd" clip-rule="evenodd" d="M76.9358 20.083L27.838 41.6478C25.7521 42.564 24.8339 45.0659 25.7871 47.236L49.949 102.247L102.824 79.0234L76.9358 20.083ZM26.1121 37.7185C21.9404 39.5508 20.104 44.5546 22.0103 48.8948L47.8981 107.835L108.326 81.2939L78.9867 14.4948L26.1121 37.7185Z" fill="#5A1790"/>
<path fill-rule="evenodd" clip-rule="evenodd" d="M55.4512 104.517C54.4496 104.957 53.6708 105.793 53.2862 106.841C52.9015 107.889 52.9426 109.063 53.4003 110.105C53.8581 111.147 54.695 111.972 55.7269 112.398C56.7588 112.824 57.9013 112.816 58.903 112.376L105.236 92.0252C104.058 91.1294 103.109 89.9318 102.498 88.5404C101.887 87.1489 101.647 85.6397 101.784 84.1665L55.4512 104.517ZM49.3952 105.235C50.1645 103.139 51.7221 101.468 53.7254 100.588L106.6 77.364L108.326 81.2933C107.324 81.7333 106.545 82.5692 106.161 83.6172C105.776 84.6652 105.817 85.8394 106.275 86.8815C106.733 87.9237 107.57 88.7483 108.602 89.1741C109.633 89.5999 110.776 89.592 111.778 89.152L113.503 93.0814L60.6288 116.305C58.6255 117.185 56.3406 117.201 54.2767 116.349C52.2128 115.498 50.539 113.848 49.6236 111.764C48.7081 109.68 48.626 107.331 49.3952 105.235Z" fill="#5A1790"/>
</g>
<defs>
<clipPath id="clip0_78_2089">
<rect width="99" height="103" fill="white" transform="translate(0 39.8125) rotate(-23.7121)"/>
</clipPath>
</defs>
</svg>
