<svg width="68" height="61" viewBox="0 0 68 61" fill="none" xmlns="http://www.w3.org/2000/svg">
<g clip-path="url(#clip0_78_2094)">
<path fill-rule="evenodd" clip-rule="evenodd" d="M53.7246 12.965L18.6957 8.20111L16.0439 27.6996L51.0729 32.4634L53.7246 12.965ZM18.9903 6.03461C17.6085 5.84668 16.3564 6.66431 16.1936 7.86083L13.5419 27.3593C13.3792 28.5558 14.3675 29.6781 15.7493 29.8661L50.7782 34.6299C52.1601 34.8179 53.4122 34.0002 53.5749 32.8037L56.2267 13.3053C56.3894 12.1087 55.4011 10.9864 54.0193 10.7985L18.9903 6.03461Z" fill="#5A1790"/>
<path d="M33.2667 13.4924C33.3481 12.8942 33.9742 12.4854 34.6651 12.5793L37.1672 12.9196C37.8581 13.0136 38.3522 13.5747 38.2709 14.173V14.173C38.1895 14.7712 37.5634 15.1801 36.8725 15.0861L34.3705 14.7458C33.6795 14.6518 33.1854 14.0907 33.2667 13.4924V13.4924Z" fill="#5A1790"/>
<path fill-rule="evenodd" clip-rule="evenodd" d="M50.485 39.0022L14.8695 34.1585L11.2251 46.9023L50.5937 52.2563L50.485 39.0022ZM15.1641 31.992C13.9023 31.8204 12.7273 32.4893 12.4233 33.5521L8.77891 46.2959C8.41638 47.5636 9.42548 48.8641 10.9305 49.0688L50.299 54.4228C51.804 54.6275 53.1238 53.6437 53.113 52.3253L53.0043 39.0711C52.9952 37.9656 52.0415 37.0073 50.7796 36.8357L15.1641 31.992Z" fill="#5A1790"/>
<path d="M24.2316 46.1019C24.5747 45.0846 25.7227 44.4609 26.9458 44.6273L36.051 45.8656C37.2741 46.0319 38.2138 46.9395 38.2728 48.0115L38.4153 50.6002L23.4029 48.5586L24.2316 46.1019Z" fill="#5A1790"/>
</g>
<defs>
<clipPath id="clip0_78_2094">
<rect width="60.6023" height="52.4745" fill="white" transform="translate(7.07031) rotate(7.74463)"/>
</clipPath>
</defs>
</svg>
