<svg width="75" height="83" viewBox="0 0 75 83" fill="none" xmlns="http://www.w3.org/2000/svg">
<g clip-path="url(#clip0_78_2095)">
<path d="M19.0024 61.6164C19.3743 60.9346 20.0647 60.594 20.5445 60.8556L22.2818 61.8032C22.7616 62.0648 22.849 62.8297 22.4771 63.5116V63.5116C22.1052 64.1934 21.4148 64.534 20.9351 64.2724L19.1977 63.3248C18.718 63.0632 18.6305 62.2983 19.0024 61.6164V61.6164Z" fill="#5A1790"/>
<path fill-rule="evenodd" clip-rule="evenodd" d="M49.6081 15.835L44.396 12.9923C43.9462 12.747 43.3113 13.0311 42.9273 13.6294C42.9017 13.6693 42.8772 13.7106 42.854 13.7532L41.5073 16.2224C41.1354 16.9043 41.2228 17.6691 41.7026 17.9308C42.1823 18.1924 42.8727 17.8518 43.2446 17.1699L43.918 15.9353L47.3927 17.8304L46.7193 19.0651C46.3474 19.7469 46.4349 20.5118 46.9146 20.7734C47.3944 21.0351 48.0848 20.6945 48.4567 20.0126L49.8034 17.5434C50.1753 16.8615 50.0878 16.0966 49.6081 15.835Z" fill="#5A1790"/>
<path fill-rule="evenodd" clip-rule="evenodd" d="M39.875 23.3435L43.3497 25.2386L27.1891 54.8694L23.7144 52.9743L39.875 23.3435ZM28.9265 55.8169L22.7583 58.8603L21.9771 52.0267L38.1377 22.396L39.4844 19.9268L41.2217 20.8743L44.6964 22.7694L46.4338 23.717L45.0871 26.1862L28.9265 55.8169Z" fill="#5A1790"/>
</g>
<defs>
<clipPath id="clip0_78_2095">
<rect width="47.4948" height="67.5025" fill="white" transform="translate(32.3203) rotate(28.6081)"/>
</clipPath>
</defs>
</svg>
