<svg width="982" height="97" viewBox="0 0 982 97" fill="none" xmlns="http://www.w3.org/2000/svg">
<path d="M96.4 55.2C95.3333 55.2 94.34 55.0267 93.42 54.68C92.5133 54.32 91.72 53.82 91.04 53.18C90.3733 52.5267 89.8533 51.76 89.48 50.88C89.1067 50 88.92 49.04 88.92 48C88.92 46.96 89.1067 46 89.48 45.12C89.8533 44.24 90.38 43.48 91.06 42.84C91.74 42.1867 92.5333 41.6867 93.44 41.34C94.3467 40.98 95.34 40.8 96.42 40.8C97.5667 40.8 98.6133 41 99.56 41.4C100.507 41.7867 101.307 42.3667 101.96 43.14L100.28 44.72C99.7733 44.1733 99.2067 43.7667 98.58 43.5C97.9533 43.22 97.2733 43.08 96.54 43.08C95.8067 43.08 95.1333 43.2 94.52 43.44C93.92 43.68 93.3933 44.02 92.94 44.46C92.5 44.9 92.1533 45.42 91.9 46.02C91.66 46.62 91.54 47.28 91.54 48C91.54 48.72 91.66 49.38 91.9 49.98C92.1533 50.58 92.5 51.1 92.94 51.54C93.3933 51.98 93.92 52.32 94.52 52.56C95.1333 52.8 95.8067 52.92 96.54 52.92C97.2733 52.92 97.9533 52.7867 98.58 52.52C99.2067 52.24 99.7733 51.82 100.28 51.26L101.96 52.86C101.307 53.62 100.507 54.2 99.56 54.6C98.6133 55 97.56 55.2 96.4 55.2ZM113.323 53.8V43.2H107.843L107.743 45.68C107.703 46.6133 107.643 47.5 107.563 48.34C107.496 49.1667 107.383 49.92 107.223 50.6C107.076 51.28 106.869 51.8467 106.603 52.3C106.336 52.7533 106.009 53.0533 105.623 53.2L102.823 52.8C103.329 52.8267 103.743 52.6533 104.063 52.28C104.396 51.9067 104.656 51.3867 104.843 50.72C105.029 50.0533 105.169 49.2733 105.263 48.38C105.356 47.4733 105.423 46.4933 105.463 45.44L105.623 41H115.883V53.8H113.323ZM102.343 57.98L102.363 52.8H117.903V57.98H115.503V55H104.763V57.98H102.343ZM118.59 55L124.89 41H127.45L133.77 55H131.05L125.63 42.38H126.67L121.27 55H118.59ZM121.49 51.76L122.19 49.72H129.75L130.45 51.76H121.49ZM138.154 55V42.56L138.774 43.2H133.534V41H145.374V43.2H140.134L140.734 42.56V55H138.154ZM154.076 45.74C155.743 45.74 157.03 46.1133 157.936 46.86C158.843 47.6067 159.296 48.7267 159.296 50.22C159.296 51.7933 158.796 52.9867 157.796 53.8C156.81 54.6 155.43 55 153.656 55H147.636V41H150.196V45.74H154.076ZM153.536 53C154.536 53 155.31 52.7667 155.856 52.3C156.416 51.8333 156.696 51.1533 156.696 50.26C156.696 49.38 156.423 48.74 155.876 48.34C155.33 47.9267 154.55 47.72 153.536 47.72H150.196V53H153.536ZM170.42 55V42.56L171.04 43.2H165.8V41H177.64V43.2H172.4L173 42.56V55H170.42ZM182.282 46.82H189.242V48.96H182.282V46.82ZM182.482 52.82H190.382V55H179.882V41H190.102V43.18H182.482V52.82ZM199.72 55.2C198.654 55.2 197.66 55.0267 196.74 54.68C195.834 54.32 195.04 53.82 194.36 53.18C193.694 52.5267 193.174 51.76 192.8 50.88C192.427 50 192.24 49.04 192.24 48C192.24 46.96 192.427 46 192.8 45.12C193.174 44.24 193.7 43.48 194.38 42.84C195.06 42.1867 195.854 41.6867 196.76 41.34C197.667 40.98 198.66 40.8 199.74 40.8C200.887 40.8 201.934 41 202.88 41.4C203.827 41.7867 204.627 42.3667 205.28 43.14L203.6 44.72C203.094 44.1733 202.527 43.7667 201.9 43.5C201.274 43.22 200.594 43.08 199.86 43.08C199.127 43.08 198.454 43.2 197.84 43.44C197.24 43.68 196.714 44.02 196.26 44.46C195.82 44.9 195.474 45.42 195.22 46.02C194.98 46.62 194.86 47.28 194.86 48C194.86 48.72 194.98 49.38 195.22 49.98C195.474 50.58 195.82 51.1 196.26 51.54C196.714 51.98 197.24 52.32 197.84 52.56C198.454 52.8 199.127 52.92 199.86 52.92C200.594 52.92 201.274 52.7867 201.9 52.52C202.527 52.24 203.094 51.82 203.6 51.26L205.28 52.86C204.627 53.62 203.827 54.2 202.88 54.6C201.934 55 200.88 55.2 199.72 55.2ZM210.478 55V42.56L211.098 43.2H205.858V41H217.698V43.2H212.458L213.058 42.56V55H210.478Z" fill="black"/>
<path d="M286 48H306M297 39L306 48L297 57" stroke="black" stroke-width="2"/>
<path d="M0 1H308V-1H0V1ZM308 96H0V98H308V96Z" fill="black" mask="url(#path-1-inside-1_78_2804)"/>
<path d="M430.26 53.8V43.2H424.78L424.68 45.68C424.64 46.6133 424.58 47.5 424.5 48.34C424.433 49.1667 424.32 49.92 424.16 50.6C424.013 51.28 423.807 51.8467 423.54 52.3C423.273 52.7533 422.947 53.0533 422.56 53.2L419.76 52.8C420.267 52.8267 420.68 52.6533 421 52.28C421.333 51.9067 421.593 51.3867 421.78 50.72C421.967 50.0533 422.107 49.2733 422.2 48.38C422.293 47.4733 422.36 46.4933 422.4 45.44L422.56 41H432.82V53.8H430.26ZM419.28 57.98L419.3 52.8H434.84V57.98H432.44V55H421.7V57.98H419.28ZM443.788 55.2C442.695 55.2 441.688 55.02 440.768 54.66C439.848 54.3 439.048 53.8 438.368 53.16C437.688 52.5067 437.161 51.7467 436.788 50.88C436.415 50 436.228 49.04 436.228 48C436.228 46.96 436.415 46.0067 436.788 45.14C437.161 44.26 437.688 43.5 438.368 42.86C439.048 42.2067 439.848 41.7 440.768 41.34C441.688 40.98 442.688 40.8 443.768 40.8C444.861 40.8 445.861 40.98 446.768 41.34C447.688 41.7 448.488 42.2067 449.168 42.86C449.848 43.5 450.375 44.26 450.748 45.14C451.121 46.0067 451.308 46.96 451.308 48C451.308 49.04 451.121 50 450.748 50.88C450.375 51.76 449.848 52.52 449.168 53.16C448.488 53.8 447.688 54.3 446.768 54.66C445.861 55.02 444.868 55.2 443.788 55.2ZM443.768 52.92C444.475 52.92 445.128 52.8 445.728 52.56C446.328 52.32 446.848 51.98 447.288 51.54C447.728 51.0867 448.068 50.5667 448.308 49.98C448.561 49.38 448.688 48.72 448.688 48C448.688 47.28 448.561 46.6267 448.308 46.04C448.068 45.44 447.728 44.92 447.288 44.48C446.848 44.0267 446.328 43.68 445.728 43.44C445.128 43.2 444.475 43.08 443.768 43.08C443.061 43.08 442.408 43.2 441.808 43.44C441.221 43.68 440.701 44.0267 440.248 44.48C439.808 44.92 439.461 45.44 439.208 46.04C438.968 46.6267 438.848 47.28 438.848 48C438.848 48.7067 438.968 49.36 439.208 49.96C439.461 50.56 439.808 51.0867 440.248 51.54C440.688 51.98 441.208 52.32 441.808 52.56C442.408 52.8 443.061 52.92 443.768 52.92ZM463.443 55L458.703 48.18L460.803 46.88L466.383 55H463.443ZM454.183 55V41H456.743V55H454.183ZM455.963 49.1V46.86H460.683V49.1H455.963ZM461.043 48.3L458.663 47.98L463.443 41H466.203L461.043 48.3ZM468.523 52.8C469.257 53.0533 469.903 53.12 470.463 53C471.023 52.88 471.523 52.4733 471.963 51.78L472.643 50.72L472.903 50.44L477.783 41H480.343L474.263 52.3C473.77 53.2467 473.183 53.9667 472.503 54.46C471.823 54.9533 471.09 55.2267 470.303 55.28C469.53 55.3467 468.723 55.2 467.883 54.84L468.523 52.8ZM472.843 52.68L466.603 41H469.383L474.263 50.68L472.843 52.68ZM482.171 55V41H484.291L490.431 51.22H489.291L495.331 41H497.451L497.491 55H495.011L494.991 44.86H495.511L490.391 53.4H489.231L484.031 44.86H484.631V55H482.171ZM503.809 46.82H510.769V48.96H503.809V46.82ZM504.009 52.82H511.909V55H501.409V41H511.629V43.18H504.009V52.82ZM524.648 41H527.248V55H524.648V41ZM517.408 55H514.808V41H517.408V55ZM524.848 49H517.188V46.78H524.848V49ZM534.115 55V42.56L534.735 43.2H529.495V41H541.335V43.2H536.095L536.695 42.56V55H534.115ZM550.037 45.74C551.704 45.74 552.991 46.1133 553.897 46.86C554.804 47.6067 555.257 48.7267 555.257 50.22C555.257 51.7933 554.757 52.9867 553.757 53.8C552.771 54.6 551.391 55 549.617 55H543.597V41H546.157V45.74H550.037ZM549.497 53C550.497 53 551.271 52.7667 551.817 52.3C552.377 51.8333 552.657 51.1533 552.657 50.26C552.657 49.38 552.384 48.74 551.837 48.34C551.291 47.9267 550.511 47.72 549.497 47.72H546.157V53H549.497ZM557.277 55V41H559.837V55H557.277Z" fill="black"/>
<path d="M623 48H643M634 39L643 48L634 57" stroke="black" stroke-width="2"/>
<path d="M337 1H645V-1H337V1ZM645 96H337V98H645V96Z" fill="black" mask="url(#path-5-inside-2_78_2804)"/>
<path d="M774.98 55V41H777.54V50.94L785.06 41H787.48V55H784.92V45.08L777.4 55H774.98ZM801.245 41H803.845V55H801.245V41ZM794.005 55H791.405V41H794.005V55ZM801.445 49H793.785V46.78H801.445V49ZM810.713 55V42.56L811.333 43.2H806.093V41H817.933V43.2H812.693L813.293 42.56V55H810.713ZM822.575 46.82H829.535V48.96H822.575V46.82ZM822.775 52.82H830.675V55H820.175V41H830.395V43.18H822.775V52.82ZM833.573 55V41H839.333C840.573 41 841.633 41.2 842.513 41.6C843.407 42 844.093 42.5733 844.573 43.32C845.053 44.0667 845.293 44.9533 845.293 45.98C845.293 47.0067 845.053 47.8933 844.573 48.64C844.093 49.3867 843.407 49.96 842.513 50.36C841.633 50.76 840.573 50.96 839.333 50.96H835.013L836.173 49.74V55H833.573ZM836.173 50.02L835.013 48.76H839.213C840.36 48.76 841.22 48.52 841.793 48.04C842.38 47.5467 842.673 46.86 842.673 45.98C842.673 45.0867 842.38 44.4 841.793 43.92C841.22 43.44 840.36 43.2 839.213 43.2H835.013L836.173 41.92V50.02ZM847.773 55V41H854.033C855.606 41 856.833 41.3133 857.713 41.94C858.593 42.5533 859.033 43.44 859.033 44.6C859.033 45.7467 858.613 46.6333 857.773 47.26C856.933 47.8733 855.826 48.18 854.453 48.18L854.813 47.46C856.373 47.46 857.58 47.7733 858.433 48.4C859.286 49.0267 859.713 49.9333 859.713 51.12C859.713 52.3333 859.266 53.2867 858.373 53.98C857.48 54.66 856.16 55 854.413 55H847.773ZM850.333 53H854.333C855.24 53 855.926 52.8333 856.393 52.5C856.86 52.1533 857.093 51.6267 857.093 50.92C857.093 50.2133 856.86 49.7 856.393 49.38C855.926 49.0467 855.24 48.88 854.333 48.88H850.333V53ZM850.333 46.98H853.813C854.653 46.98 855.293 46.8133 855.733 46.48C856.173 46.1333 856.393 45.64 856.393 45C856.393 44.3333 856.173 43.8333 855.733 43.5C855.293 43.1667 854.653 43 853.813 43H850.333V46.98ZM862.695 55V41H865.255V46.74H868.875V49.06H865.255V55H862.695ZM874.655 55.2C873.615 55.2 872.655 55.02 871.775 54.66C870.895 54.3 870.128 53.8 869.475 53.16C868.822 52.52 868.308 51.76 867.935 50.88C867.575 50 867.395 49.04 867.395 48C867.395 46.96 867.575 46 867.935 45.12C868.308 44.24 868.822 43.48 869.475 42.84C870.128 42.2 870.895 41.7 871.775 41.34C872.655 40.98 873.615 40.8 874.655 40.8C875.682 40.8 876.635 40.98 877.515 41.34C878.408 41.7 879.182 42.2 879.835 42.84C880.488 43.48 880.995 44.24 881.355 45.12C881.715 46 881.895 46.96 881.895 48C881.895 49.04 881.715 50 881.355 50.88C880.995 51.76 880.488 52.52 879.835 53.16C879.182 53.8 878.408 54.3 877.515 54.66C876.635 55.02 875.682 55.2 874.655 55.2ZM874.655 52.92C875.308 52.92 875.915 52.8 876.475 52.56C877.048 52.32 877.542 51.98 877.955 51.54C878.368 51.1 878.688 50.5867 878.915 50C879.155 49.4 879.275 48.7333 879.275 48C879.275 47.2667 879.155 46.6067 878.915 46.02C878.688 45.42 878.368 44.9 877.955 44.46C877.542 44.02 877.048 43.68 876.475 43.44C875.915 43.2 875.308 43.08 874.655 43.08C874.002 43.08 873.395 43.2 872.835 43.44C872.275 43.68 871.782 44.02 871.355 44.46C870.942 44.9 870.615 45.42 870.375 46.02C870.148 46.6067 870.035 47.2667 870.035 48C870.035 48.7333 870.148 49.4 870.375 50C870.615 50.5867 870.942 51.1 871.355 51.54C871.782 51.98 872.275 52.32 872.835 52.56C873.395 52.8 874.002 52.92 874.655 52.92Z" fill="black"/>
<path d="M966.998 52.1996L962.798 47.9996L961.398 49.3996L966.998 54.9996L978.998 42.9996L977.598 41.5996L966.998 52.1996Z" fill="black"/>
<path d="M674 1H982V-1H674V1ZM982 96H674V98H982V96Z" fill="black" mask="url(#path-9-inside-3_78_2804)"/>
</svg>
